<svg width="16" height="16" viewBox="0 0 16 16" fill="none" xmlns="http://www.w3.org/2000/svg">
<path fill-rule="evenodd" clip-rule="evenodd" d="M1.64592 11.3551C1.69236 11.4016 1.74754 11.4386 1.80828 11.4638C1.86903 11.489 1.93415 11.502 1.99992 11.502C2.06568 11.502 2.13081 11.489 2.19155 11.4638C2.2523 11.4386 2.30747 11.4016 2.35392 11.3551L7.99992 5.70806L13.6459 11.3551C13.6924 11.4015 13.7476 11.4384 13.8083 11.4636C13.8691 11.4887 13.9342 11.5017 13.9999 11.5017C14.0657 11.5017 14.1308 11.4887 14.1915 11.4636C14.2522 11.4384 14.3074 11.4015 14.3539 11.3551C14.4004 11.3086 14.4373 11.2534 14.4624 11.1926C14.4876 11.1319 14.5005 11.0668 14.5005 11.0011C14.5005 10.9353 14.4876 10.8702 14.4624 10.8095C14.4373 10.7487 14.4004 10.6935 14.3539 10.6471L8.35392 4.64706C8.30747 4.6005 8.2523 4.56355 8.19155 4.53835C8.13081 4.51314 8.06569 4.50017 7.99992 4.50017C7.93415 4.50017 7.86903 4.51314 7.80829 4.53835C7.74754 4.56355 7.69236 4.6005 7.64592 4.64706L1.64592 10.6471C1.59935 10.6935 1.56241 10.7487 1.5372 10.8094C1.512 10.8702 1.49902 10.9353 1.49902 11.0011C1.49902 11.0668 1.512 11.1319 1.5372 11.1927C1.56241 11.2534 1.59935 11.3086 1.64592 11.3551V11.3551Z" fill="#006D4E"/>
</svg>
